HIERARCHY
ROOT joint_Root
{
	OFFSET 0.0 0.0 0.0
	CHANNELS 6 Xposition Yposition Zposition Zrotation Xrotation Yrotation 
	JOINT Hips
	{
		OFFSET 4.5925 91.4895 -427.239
		CHANNELS 6 Xposition Yposition Zposition Zrotation Xrotation Yrotation 
		JOINT Spine
		{
			OFFSET 15.7357 0.0 0.0
			CHANNELS 6 Xposition Yposition Zposition Zrotation Xrotation Yrotation 
			JOINT Chest
			{
				OFFSET 8.98455 -0.406207 0.0
				CHANNELS 6 Xposition Yposition Zposition Zrotation Xrotation Yrotation 
				JOINT Neck
				{
					OFFSET 16.3773 0.0 0.0
					CHANNELS 6 Xposition Yposition Zposition Zrotation Xrotation Yrotation 
					JOINT Head
					{
						OFFSET 6.45672 0.0 0.0
						CHANNELS 6 Xposition Yposition Zposition Zrotation Xrotation Yrotation 
						End Site
						{
							OFFSET 0.0 0.0 0.0
						}
					}
				}
				JOINT Shoulder_L
				{
					OFFSET 12.9942 -0.242716 4.98039
					CHANNELS 6 Xposition Yposition Zposition Zrotation Xrotation Yrotation 
					JOINT UpperArm_L
					{
						OFFSET 5.34809 0.0 0.0
						CHANNELS 6 Xposition Yposition Zposition Zrotation Xrotation Yrotation 
						JOINT LowerArm_L
						{
							OFFSET 24.3286 1.87007e-05 0.0
							CHANNELS 6 Xposition Yposition Zposition Zrotation Xrotation Yrotation 
							JOINT Hand_L
							{
								OFFSET 22.2916 0.0 0.0
								CHANNELS 6 Xposition Yposition Zposition Zrotation Xrotation Yrotation 
								End Site
								{
									OFFSET 0.0 0.0 0.0
								}
							}
						}
					}
				}
				JOINT Shoulder_R
				{
					OFFSET 12.9945 -0.242716 -4.98039
					CHANNELS 6 Xposition Yposition Zposition Zrotation Xrotation Yrotation 
					JOINT UpperArm_R
					{
						OFFSET -5.34813 0.0 0.0
						CHANNELS 6 Xposition Yposition Zposition Zrotation Xrotation Yrotation 
						JOINT LowerArm_R
						{
							OFFSET -24.3289 0.000322201 0.0
							CHANNELS 6 Xposition Yposition Zposition Zrotation Xrotation Yrotation 
							JOINT Hand_R
							{
								OFFSET -22.2915 -0.000108084 0.0
								CHANNELS 6 Xposition Yposition Zposition Zrotation Xrotation Yrotation 
								End Site
								{
									OFFSET 0.0 0.0 0.0
								}
							}
						}
					}
				}
			}
		}
		JOINT UpperLeg_L
		{
			OFFSET -2.19248 -6.46944 0.0
			CHANNELS 6 Xposition Yposition Zposition Zrotation Xrotation Yrotation 
			JOINT LowerLeg_L
			{
				OFFSET 39.0811 0.0 -1.23785e-05
				CHANNELS 6 Xposition Yposition Zposition Zrotation Xrotation Yrotation 
				JOINT Foot_L
				{
					OFFSET 40.9854 0.0 -1.26872e-05
					CHANNELS 6 Xposition Yposition Zposition Zrotation Xrotation Yrotation 
					JOINT Toes_L
					{
						OFFSET 11.7543 0.0 0.0
						CHANNELS 6 Xposition Yposition Zposition Zrotation Xrotation Yrotation 
						End Site
						{
							OFFSET 0.0 0.0 0.0
						}
					}
				}
			}
		}
		JOINT UpperLeg_R
		{
			OFFSET -2.19251 6.46944 0.0
			CHANNELS 6 Xposition Yposition Zposition Zrotation Xrotation Yrotation 
			JOINT LowerLeg_R
			{
				OFFSET -39.0811 -0.00228153 -0.0401928
				CHANNELS 6 Xposition Yposition Zposition Zrotation Xrotation Yrotation 
				JOINT Foot_R
				{
					OFFSET -40.9854 0.0 0.0
					CHANNELS 6 Xposition Yposition Zposition Zrotation Xrotation Yrotation 
					JOINT Toes_R
					{
						OFFSET -11.7543 0.0 0.0
						CHANNELS 6 Xposition Yposition Zposition Zrotation Xrotation Yrotation 
						End Site
						{
							OFFSET 0.0 0.0 0.0
						}
					}
				}
			}
		}
	}
}
MOTION
Frames:	4
Frame Time:	0.0333333
0.000000 0.000000 0.000000 0.000000 0.000000 -0.000000 0.745529 82.630200 0.867544 89.380600 -5.907840 12.918500 15.735700 0.000005 -0.000001 89.651900 79.323100 -89.878500 8.984550 -0.406207 -0.000000 13.587200 -0.139785 -0.436581 16.377300 -0.000001 -0.000001 -3.320770 -0.873883 0.154810 6.456720 -0.000001 -0.000000 -8.237070 -0.941264 2.779770 12.994200 -0.242716 4.980390 -90.613500 1.560300 -68.528400 5.348090 -0.000007 -0.000001 -77.113600 25.089500 5.653420 24.328600 0.000019 0.000005 5.366530 17.243200 -17.588900 22.291600 -0.000001 0.000005 10.436300 5.255240 1.292820 12.994500 -0.242716 -4.980390 87.848400 9.342740 -76.968900 -5.348130 -0.000001 -0.000004 -67.298400 25.269100 -2.191970 -24.328900 0.000322 -0.000009 0.693120 4.309870 -9.198380 -22.291500 -0.000108 -0.000004 8.122800 5.470520 -5.370220 -2.192480 -6.469440 -0.000000 -174.787000 -11.912200 -10.230800 39.081100 -0.000007 -0.000012 -0.582799 0.332406 60.302500 40.985400 -0.000006 -0.000013 -0.181067 0.552413 -86.846100 11.754300 -0.000000 0.000003 -0.000424 -0.003472 -16.705300 -2.192510 6.469440 -0.000001 175.137000 10.157100 169.782000 -39.081100 -0.002282 -0.040193 0.069484 -0.037467 60.523300 -40.985400 0.000008 0.000006 5.800940 4.498000 -86.620300 -11.754300 -0.000006 -0.000006 -0.990854 -1.227680 -16.937700
0.000000 0.000000 0.000000 0.000000 0.000000 -0.000000 0.806779 84.700000 1.457010 89.123800 -5.151250 11.857400 15.735700 0.000005 -0.000001 90.547100 80.426100 -90.589400 8.984550 -0.406207 -0.000000 11.381000 0.180060 -0.102562 16.377300 -0.000001 -0.000001 -2.688930 -1.028810 0.182130 6.456720 -0.000001 -0.000000 -7.621730 -1.079020 2.508110 12.994200 -0.242716 4.980390 -89.981800 -0.044832 -67.996700 5.348090 -0.000007 -0.000001 -71.866500 14.300000 4.753490 24.328600 0.000019 0.000005 5.240120 19.382400 -15.448400 22.291600 -0.000001 0.000005 7.570590 5.233260 1.876200 12.994500 -0.242716 -4.980390 88.274100 7.148550 -76.387400 -5.348130 -0.000001 -0.000004 -63.493600 16.037400 -3.543490 -24.328900 0.000322 -0.000009 0.501719 8.614670 -3.364190 -22.291500 -0.000108 -0.000004 3.760760 5.417100 -3.489990 -2.192480 -6.469440 -0.000000 -175.006000 -11.144100 -8.010360 39.081100 -0.000007 -0.000012 -0.519447 0.376023 54.100800 40.985400 -0.000006 -0.000013 -0.211362 0.505040 -84.007900 11.754300 -0.000000 0.000003 -0.000405 -0.003341 -16.700700 -2.192510 6.469440 -0.000001 175.138000 11.420700 172.311000 -39.081100 -0.002282 -0.040193 0.059968 -0.040846 54.249300 -40.985400 0.000008 0.000006 5.729160 5.291570 -83.562000 -11.754300 -0.000006 -0.000006 -1.028630 -1.268860 -17.222700
0.000000 0.000000 0.000000 0.000000 0.000000 -0.000000 0.914050 87.137900 1.942670 89.265100 -4.715540 10.035100 15.735700 0.000005 -0.000001 92.934700 82.104400 -92.940000 8.984550 -0.406207 -0.000000 8.005010 0.805006 -0.066816 16.377300 -0.000001 -0.000001 -0.915338 -1.332950 0.359549 6.456720 -0.000001 -0.000000 -6.633680 -1.488020 2.347590 12.994200 -0.242716 4.980390 -89.155300 -2.048520 -67.588900 5.348090 -0.000007 -0.000001 -62.769800 1.974590 0.791860 24.328600 0.000019 0.000005 5.617980 20.769300 -15.503900 22.291600 -0.000001 0.000005 8.404930 5.159310 3.712310 12.994500 -0.242716 -4.980390 88.797200 4.686690 -75.587000 -5.348130 -0.000001 -0.000004 -55.950400 3.648240 -7.511090 -24.328900 0.000322 -0.000009 -0.001658 12.100700 0.000050 -22.291500 -0.000108 -0.000004 3.664570 5.336310 -0.974925 -2.192480 -6.469440 -0.000000 -175.667000 -11.055200 -5.533910 39.081100 -0.000007 -0.000012 -0.390500 0.380840 45.718300 40.985400 -0.000006 -0.000013 -0.098555 0.709920 -80.012300 11.754300 -0.000000 0.000003 -0.000310 -0.002675 -16.677100 -2.192510 6.469440 -0.000001 174.855000 12.906300 174.626000 -39.081100 -0.002282 -0.040193 0.044764 -0.039562 46.372400 -40.985400 0.000008 0.000006 5.682020 6.751180 -79.178900 -11.754300 -0.000006 -0.000006 -1.188060 -1.453230 -17.786300
0.000000 0.000000 0.000000 0.000000 0.000000 -0.000000 1.105560 89.137000 2.061730 89.336300 -4.482320 7.273470 15.735700 0.000005 -0.000001 96.013100 84.240600 -96.015500 8.984550 -0.406207 -0.000000 3.690180 1.205160 -0.043635 16.377300 -0.000001 -0.000001 1.803060 -1.236150 0.550313 6.456720 -0.000001 -0.000000 -5.394580 -1.825760 2.402480 12.994200 -0.242716 4.980390 -88.412400 -3.681500 -66.653600 5.348090 -0.000007 -0.000001 -52.136500 -10.318100 -7.349720 24.328600 0.000019 0.000005 5.526070 19.285600 -16.329100 22.291600 -0.000001 0.000005 9.199440 5.111870 4.840380 12.994500 -0.242716 -4.980390 89.332900 2.482790 -74.953600 -5.348130 -0.000001 -0.000004 -46.723900 -9.042960 -14.525600 -24.328900 0.000322 -0.000009 -0.001413 13.545400 0.000057 -22.291500 -0.000108 -0.000004 4.012450 5.267300 0.972140 -2.192480 -6.469440 -0.000000 -176.378000 -11.507900 -4.454280 39.081100 -0.000007 -0.000012 -0.287927 0.371498 37.777800 40.985400 -0.000006 -0.000013 0.140278 1.164800 -75.990000 11.754300 -0.000000 0.000003 -0.000214 -0.001962 -16.651400 -2.192510 6.469440 -0.000001 174.976000 14.508000 175.328000 -39.081100 -0.002282 -0.040193 0.031050 -0.034105 39.153500 -40.985400 0.000008 0.000006 5.449360 8.422440 -74.679700 -11.754300 -0.000006 -0.000006 -1.344150 -1.622580 -18.484800
